<svg xmlns="http://www.w3.org/2000/svg" xmlns:xlink="http://www.w3.org/1999/xlink" width="529.95" height="758.025" viewBox="0 0 529.95 758.025">
  <defs>
    <filter id="Path_308622" x="0" y="0" width="529.95" height="758.025" filterUnits="userSpaceOnUse">
      <feOffset dy="3" input="SourceAlpha"/>
      <feGaussianBlur stdDeviation="15" result="blur"/>
      <feFlood flood-opacity="0.412"/>
      <feComposite operator="in" in2="blur"/>
      <feComposite in="SourceGraphic"/>
    </filter>
    <linearGradient id="linear-gradient" x1="0.5" y1="1" x2="0.5" gradientUnits="objectBoundingBox">
      <stop offset="0" stop-color="#ffe6c9"/>
      <stop offset="0.106" stop-color="#edc7a5"/>
      <stop offset="0.141" stop-color="#dbb28b"/>
      <stop offset="0.193" stop-color="#c7996b"/>
      <stop offset="0.252" stop-color="#b58350"/>
      <stop offset="0.318" stop-color="#a6713a"/>
      <stop offset="0.396" stop-color="#9b6429"/>
      <stop offset="0.492" stop-color="#935a1d"/>
      <stop offset="0.626" stop-color="#8f5516"/>
      <stop offset="1" stop-color="#8e5415"/>
    </linearGradient>
    <linearGradient id="linear-gradient-2" x1="0.5" y1="1" x2="0.5" gradientUnits="objectBoundingBox">
      <stop offset="0" stop-color="#8e5415"/>
      <stop offset="0.374" stop-color="#8f5516"/>
      <stop offset="0.508" stop-color="#935a1d"/>
      <stop offset="0.604" stop-color="#9b6429"/>
      <stop offset="0.682" stop-color="#a6713a"/>
      <stop offset="0.748" stop-color="#b58350"/>
      <stop offset="0.807" stop-color="#c7996b"/>
      <stop offset="0.859" stop-color="#dbb28b"/>
      <stop offset="0.894" stop-color="#edc7a5"/>
      <stop offset="1" stop-color="#ffe6c9"/>
    </linearGradient>
    <linearGradient id="linear-gradient-3" x1="0.005" y1="0.499" x2="0.999" y2="0.499" gradientUnits="objectBoundingBox">
      <stop offset="0" stop-color="#666"/>
      <stop offset="0.421" stop-color="#676767"/>
      <stop offset="0.573" stop-color="#6e6e6e"/>
      <stop offset="0.681" stop-color="#7a7a7a"/>
      <stop offset="0.768" stop-color="#8b8b8b"/>
      <stop offset="0.843" stop-color="#a1a1a1"/>
      <stop offset="0.909" stop-color="#bcbcbc"/>
      <stop offset="0.968" stop-color="#dcdcdc"/>
      <stop offset="1" stop-color="#f1f1f1"/>
    </linearGradient>
    <linearGradient id="linear-gradient-4" x1="0.5" y1="1" x2="0.5" gradientUnits="objectBoundingBox">
      <stop offset="0" stop-color="#fff1e0"/>
      <stop offset="0.007" stop-color="#f9e9d6"/>
      <stop offset="0.092" stop-color="#c0996f"/>
      <stop offset="0.151" stop-color="#9c672e"/>
      <stop offset="0.178" stop-color="#8e5415"/>
      <stop offset="0.341" stop-color="#c59b6c"/>
      <stop offset="0.519" stop-color="#ffe6c9"/>
      <stop offset="0.741" stop-color="#8e5415"/>
      <stop offset="1" stop-color="#dec6a8"/>
    </linearGradient>
    <linearGradient id="linear-gradient-6" x1="-0.083" y1="0.062" x2="1.083" y2="0.938" gradientUnits="objectBoundingBox">
      <stop offset="0" stop-color="#f2f3f4"/>
      <stop offset="0.479" stop-color="#edeeee"/>
      <stop offset="1" stop-color="#e2e2e2"/>
    </linearGradient>
    <linearGradient id="linear-gradient-7" x1="0" y1="0.5" x2="1" y2="0.5" xlink:href="#linear-gradient-6"/>
    <linearGradient id="linear-gradient-8" x1="0.146" y1="0.854" x2="0.854" y2="0.146" gradientUnits="objectBoundingBox">
      <stop offset="0" stop-color="#c6c6c6"/>
      <stop offset="0.145" stop-color="#dadada"/>
      <stop offset="0.375" stop-color="#f5f5f5"/>
      <stop offset="0.51" stop-color="#fff"/>
      <stop offset="0.644" stop-color="#f4f4f4"/>
      <stop offset="0.876" stop-color="#d7d7d7"/>
      <stop offset="1" stop-color="#c6c6c6"/>
    </linearGradient>
    <linearGradient id="linear-gradient-9" x1="0.146" y1="0.146" x2="0.854" y2="0.854" gradientUnits="objectBoundingBox">
      <stop offset="0" stop-color="#929292"/>
      <stop offset="0.106" stop-color="#aeaeae"/>
      <stop offset="0.287" stop-color="#dadada"/>
      <stop offset="0.427" stop-color="#f5f5f5"/>
      <stop offset="0.51" stop-color="#fff"/>
      <stop offset="0.591" stop-color="#f4f4f4"/>
      <stop offset="0.732" stop-color="#d7d7d7"/>
      <stop offset="0.915" stop-color="#a9a9a9"/>
      <stop offset="1" stop-color="#929292"/>
    </linearGradient>
  </defs>
  <g id="object" transform="translate(-194.312 -62.435)">
    <g id="Group_127465" data-name="Group 127465" transform="translate(236.409 101.532)">
      <g id="Group_127463" data-name="Group 127463">
        <g id="Group_127461" data-name="Group 127461">
          <g id="Group_127460" data-name="Group 127460">
            <path id="Path_308620" data-name="Path 308620" d="M681.941,129.641v-.06c0-.181-.015-.346-.03-.541-.014-.3-.03-.616-.06-.918,0-.15-.015-.315-.03-.466a.844.844,0,0,1-.015-.2l-.046-.315c-.03-.3-.075-.6-.1-.887-.06-.467-.15-.918-.241-1.384s-.18-.9-.286-1.338-.24-.857-.36-1.278a.589.589,0,0,0-.016-.074q-.2-.633-.4-1.263-.226-.654-.5-1.264c-.166-.42-.346-.826-.527-1.233-.166-.346-.331-.692-.5-1.022a.829.829,0,0,1-.1-.2c-.211-.391-.421-.782-.647-1.158a25.618,25.618,0,0,0-2.226-3.278c-.015-.015-.015-.03-.03-.045-.541-.677-1.128-1.354-1.729-1.986,0-.014-.03-.029-.03-.029-.3-.331-.616-.632-.932-.933-.166-.181-.346-.346-.527-.512-.316-.271-.632-.556-.962-.812-.2-.181-.406-.347-.616-.512-.482-.391-.993-.753-1.5-1.113-.18-.121-.361-.241-.556-.361-.165-.121-.361-.226-.527-.346a13.6,13.6,0,0,0-1.188-.693l-.586-.315a28.26,28.26,0,0,0-5.82-2.3c-.166-.046-.331-.09-.5-.12-.226-.06-.451-.121-.662-.166a30.156,30.156,0,0,0-3.534-.556c-.211-.015-.407-.03-.6-.06-.707-.046-1.413-.076-2.135-.076H265.254c-.721,0-1.428.03-2.135.076-.226.03-.452.045-.662.074a25.883,25.883,0,0,0-3.458.542c-.226.045-.452.106-.677.166-.18.045-.391.09-.571.15a27.261,27.261,0,0,0-5.745,2.271l-.586.315a25.47,25.47,0,0,0-2.3,1.429c-.181.12-.347.24-.527.361q-.473.337-.948.722a29.219,29.219,0,0,0-2.315,2.03c-.166.151-.316.315-.482.48a2.038,2.038,0,0,0-.24.257,2.712,2.712,0,0,0-.211.225c-.255.255-.482.512-.707.767s-.421.5-.616.752c-.09.1-.181.211-.256.316a.949.949,0,0,0-.15.2c-.211.271-.421.541-.632.827,0,.03-.03.045-.045.075-.241.331-.466.692-.707,1.023a.618.618,0,0,1-.06.1c-.211.346-.421.692-.632,1.053-.226.376-.436.767-.647,1.158-.045.074-.06.134-.1.2-.166.331-.331.676-.481,1.022-.2.407-.376.813-.542,1.233s-.331.828-.481,1.264c-.226.646-.436,1.293-.616,1.955-.18.646-.331,1.323-.466,2-.09.466-.166.9-.241,1.384-.045.391-.1.8-.15,1.2a.846.846,0,0,1-.015.2,4.179,4.179,0,0,0-.045.617,6.472,6.472,0,0,0-.045.767c-.03.451-.045.887-.045,1.338V746.625c0,.436.014.887.045,1.323a6.49,6.49,0,0,0,.045.767,4.539,4.539,0,0,0,.045.632.724.724,0,0,1,.015.181c.046.405.106.811.15,1.217.075.467.15.918.241,1.369.135.677.286,1.338.466,2s.391,1.323.616,1.955c.15.436.3.857.481,1.262.166.422.346.843.542,1.234.151.346.315.692.481,1.022a2.18,2.18,0,0,0,.1.2c.211.391.421.782.647,1.173l.632,1.038a.6.6,0,0,1,.06.106c.241.346.466.692.707,1.022.015.03.045.046.045.075.211.286.422.557.632.827a.95.95,0,0,0,.15.2c.075.106.166.211.256.316.2.256.406.512.616.752.225.256.452.512.707.767.06.075.135.151.211.241s.151.166.24.24c.166.167.316.331.482.482.752.722,1.5,1.4,2.315,2.045.316.24.632.48.948.707.18.119.346.24.527.376.736.511,1.5.977,2.3,1.428l.586.315a27.959,27.959,0,0,0,5.745,2.256c.18.06.391.1.571.151.226.06.452.12.677.165a28.6,28.6,0,0,0,3.458.557c.211.015.436.045.662.06.707.045,1.414.074,2.135.074H653.413c.722,0,1.428-.03,2.135-.074.2-.015.391-.045.6-.06a27.411,27.411,0,0,0,3.534-.557c.211-.045.436-.1.662-.165.165-.03.331-.075.5-.12a28.222,28.222,0,0,0,5.82-2.286l.586-.315c.406-.226.8-.451,1.188-.708.166-.1.362-.225.527-.345.2-.12.376-.241.556-.361.512-.361,1.022-.722,1.5-1.1.211-.166.42-.346.616-.512.331-.271.646-.556.962-.828.181-.165.361-.33.527-.511.315-.3.631-.6.932-.917,0-.015.03-.015.03-.046.6-.631,1.188-1.293,1.729-1.984.015-.015.015-.031.03-.046a26.5,26.5,0,0,0,2.226-3.263c.226-.391.436-.782.647-1.173.03-.06.06-.12.1-.2.166-.331.331-.676.5-1.022.181-.391.361-.812.527-1.234.18-.405.346-.827.5-1.262.15-.407.286-.842.4-1.263,0-.014.016-.046.016-.06.12-.422.24-.857.36-1.294s.2-.888.286-1.338.166-.9.241-1.369c.045-.406.1-.812.151-1.217a.722.722,0,0,1,.015-.181,3.58,3.58,0,0,0,.03-.391v-.09c0-.06.015-.12.015-.18a.761.761,0,0,0,.014-.18c.016-.181.03-.376.03-.556.015-.181.03-.346.03-.541v-.061c.015-.24.015-.481.015-.721V130.377C681.956,130.122,681.956,129.882,681.941,129.641ZM265.254,772.506a25.913,25.913,0,0,1-25.9-25.881V130.377a25.915,25.915,0,0,1,25.9-25.9H653.413a25.915,25.915,0,0,1,25.9,25.9V746.625a25.913,25.913,0,0,1-25.9,25.881Z" transform="translate(-236.456 -101.579)" fill="#fff"/>
            <path id="Path_308621" data-name="Path 308621" d="M653.366,101.532H265.207a28.83,28.83,0,0,0-28.8,28.8V746.578a28.83,28.83,0,0,0,28.8,28.8H653.366a28.83,28.83,0,0,0,28.8-28.8V130.33A28.83,28.83,0,0,0,653.366,101.532Zm28.543,645.046c0,.24,0,.481-.015.721v.061c0,.2-.015.36-.03.541,0,.18-.014.375-.03.556a.761.761,0,0,1-.014.18c0,.06-.015.12-.015.18v.09a3.6,3.6,0,0,1-.03.391.725.725,0,0,0-.015.181c-.046.405-.106.811-.151,1.217-.06.452-.15.918-.241,1.369s-.18.9-.286,1.338-.24.872-.36,1.294c0,.014-.016.046-.016.06-.119.421-.255.857-.4,1.263-.151.436-.316.857-.5,1.262-.166.422-.346.843-.527,1.234-.166.346-.331.692-.5,1.022-.045.076-.075.136-.1.2-.211.391-.421.782-.647,1.173a26.505,26.505,0,0,1-2.226,3.263c-.015.015-.015.03-.03.046-.541.692-1.128,1.354-1.729,1.984,0,.03-.03.03-.03.046-.3.316-.616.616-.932.917-.166.181-.346.346-.527.511-.316.271-.632.557-.962.828-.2.166-.406.346-.616.512-.482.375-.993.736-1.5,1.1-.18.12-.361.241-.556.361-.165.12-.361.24-.527.345-.391.256-.782.482-1.188.708l-.586.315a28.22,28.22,0,0,1-5.82,2.286c-.166.045-.331.09-.5.12-.226.06-.452.12-.662.165a27.421,27.421,0,0,1-3.534.557c-.211.015-.407.045-.6.06-.707.045-1.413.074-2.135.074H265.207c-.721,0-1.428-.03-2.135-.074-.226-.015-.452-.045-.662-.06a28.612,28.612,0,0,1-3.458-.557c-.226-.045-.451-.1-.677-.165-.18-.046-.391-.091-.571-.151a27.966,27.966,0,0,1-5.745-2.256l-.586-.315c-.8-.452-1.564-.917-2.3-1.428-.181-.136-.347-.257-.527-.376-.315-.227-.632-.467-.948-.707-.812-.647-1.563-1.323-2.315-2.045-.166-.151-.316-.315-.482-.482-.09-.074-.165-.165-.24-.24s-.151-.166-.211-.241c-.255-.255-.482-.511-.707-.767-.211-.24-.421-.5-.616-.752-.09-.1-.181-.211-.256-.316a.95.95,0,0,1-.15-.2c-.211-.27-.421-.541-.632-.827,0-.029-.03-.045-.045-.075-.241-.331-.466-.676-.707-1.022a.6.6,0,0,0-.06-.106l-.632-1.038c-.226-.391-.436-.782-.647-1.173a2.18,2.18,0,0,1-.1-.2c-.166-.331-.346-.676-.481-1.022-.2-.391-.376-.812-.542-1.234-.18-.405-.331-.827-.481-1.262-.226-.632-.436-1.294-.616-1.955s-.331-1.323-.466-2c-.09-.451-.181-.917-.241-1.369-.045-.406-.1-.812-.15-1.217a.723.723,0,0,0-.015-.181,4.543,4.543,0,0,1-.045-.632,6.489,6.489,0,0,1-.045-.767c-.03-.436-.045-.887-.045-1.323V130.33c0-.451.014-.887.045-1.338a6.472,6.472,0,0,1,.045-.767,4.184,4.184,0,0,1,.045-.617.845.845,0,0,0,.015-.2c.046-.406.106-.812.15-1.2.06-.467.151-.918.241-1.384.135-.676.286-1.354.466-2,.18-.662.391-1.309.616-1.955.151-.436.3-.857.481-1.264s.346-.826.542-1.233c.135-.346.315-.692.481-1.022.045-.061.06-.121.1-.2.211-.391.421-.782.647-1.158.211-.361.421-.707.632-1.053a.617.617,0,0,0,.06-.1c.241-.331.466-.692.707-1.023.015-.03.045-.045.045-.075.211-.286.422-.556.632-.827a.95.95,0,0,1,.15-.2c.075-.106.166-.211.256-.316.2-.255.406-.511.616-.752s.452-.512.707-.767a2.708,2.708,0,0,1,.211-.225,2.035,2.035,0,0,1,.24-.257c.166-.165.316-.33.482-.48a29.217,29.217,0,0,1,2.315-2.03q.474-.384.948-.722c.18-.121.346-.241.527-.361a25.47,25.47,0,0,1,2.3-1.429l.586-.315A27.261,27.261,0,0,1,257.7,102.8c.18-.06.391-.1.571-.15.226-.06.452-.121.677-.166a25.883,25.883,0,0,1,3.458-.542c.211-.03.436-.045.662-.074.707-.046,1.414-.076,2.135-.076H653.366c.722,0,1.428.03,2.135.076.2.03.391.045.6.06a30.155,30.155,0,0,1,3.534.556c.211.045.436.106.662.166.165.03.331.074.5.12a28.258,28.258,0,0,1,5.82,2.3l.586.315a13.589,13.589,0,0,1,1.188.693c.166.12.362.225.527.346.2.12.376.24.556.361.511.36,1.022.721,1.5,1.113.211.165.42.331.616.512.331.255.646.541.962.812.181.166.361.331.527.512.315.3.631.6.932.933,0,0,.03.014.03.029.6.632,1.188,1.309,1.729,1.986.015.014.015.03.03.045A25.623,25.623,0,0,1,678.029,116c.226.376.451.767.647,1.158a.827.827,0,0,0,.1.2c.166.331.331.676.5,1.022.181.407.361.813.527,1.233s.346.828.5,1.264q.2.632.4,1.263a.589.589,0,0,1,.016.074c.12.422.24.842.36,1.278s.211.887.286,1.339c.09.466.181.917.241,1.384.03.285.075.586.1.887l.046.315a.847.847,0,0,0,.015.2c.014.151.03.316.03.466.03.3.06.617.06.918.015.2.03.36.03.541v.06c.015.241.015.481.015.736Z" transform="translate(-236.409 -101.532)" fill="#fff"/>
            <g transform="matrix(1, 0, 0, 1, -42.1, -39.1)" filter="url(#Path_308622)">
              <path id="Path_308622-2" data-name="Path 308622" d="M679.792,130.861V747.108a25.913,25.913,0,0,1-25.9,25.881H265.738a25.913,25.913,0,0,1-25.9-25.881V130.861a25.915,25.915,0,0,1,25.9-25.9H653.9A25.915,25.915,0,0,1,679.792,130.861Z" transform="translate(-194.84 -62.96)" fill="#fff"/>
            </g>
          </g>
          <path id="Path_308623" data-name="Path 308623" d="M681.837,867.376c.014-.074.014-.165.029-.255a3.6,3.6,0,0,1-.029.391.722.722,0,0,0-.015.181c-.046.4-.106.811-.151,1.217-.075.467-.151.918-.241,1.369s-.18.9-.286,1.338-.24.872-.36,1.294c0,.014-.016.046-.016.06-.134.421-.27.857-.405,1.263-.15.435-.316.857-.5,1.262-.166.422-.346.843-.527,1.234-.166.346-.331.692-.5,1.022-.045.076-.075.136-.1.2-.211.391-.421.782-.647,1.173a30.5,30.5,0,0,1-2.225,3.263c-.015.015-.015.03-.03.046-.541.692-1.128,1.354-1.729,1.984,0,.03-.03.03-.03.046-.3.316-.616.616-.932.917-.166.181-.346.346-.527.511-.316.271-.632.557-.962.828-.2.166-.406.346-.616.511-.482.375-.993.736-1.5,1.1-.18.12-.361.241-.556.361-.165.12-.361.24-.527.345-.391.256-.782.482-1.188.708l-.586.315a28.219,28.219,0,0,1-5.82,2.286c-.166.045-.331.09-.5.12-.226.06-.451.12-.662.165a27.408,27.408,0,0,1-3.534.557c-.211.015-.407.045-.6.06-.707.045-1.413.074-2.135.074H265.271c-.721,0-1.428-.03-2.135-.074-.226-.015-.452-.045-.662-.06a28.612,28.612,0,0,1-3.458-.557c-.226-.045-.451-.1-.677-.165-.18-.046-.391-.09-.571-.15a27.965,27.965,0,0,1-5.745-2.256l-.586-.315c-.8-.451-1.564-.917-2.3-1.428-.181-.136-.347-.257-.527-.376-.315-.227-.632-.467-.948-.707-.812-.647-1.563-1.323-2.315-2.045-.166-.151-.316-.315-.482-.482-.09-.074-.165-.165-.24-.24s-.151-.166-.211-.241c-.255-.255-.482-.511-.707-.767-.211-.24-.421-.5-.616-.752-.09-.1-.181-.211-.256-.316a.949.949,0,0,1-.15-.2c-.211-.27-.421-.541-.632-.827,0-.03-.03-.045-.045-.075-.241-.331-.466-.677-.707-1.022a.593.593,0,0,0-.06-.106l-.632-1.038c-.226-.391-.436-.782-.647-1.173a2.182,2.182,0,0,1-.1-.2c-.166-.331-.331-.676-.481-1.022-.2-.391-.376-.812-.542-1.234-.18-.405-.331-.827-.481-1.262-.226-.632-.436-1.294-.616-1.955s-.331-1.323-.466-2c-.09-.451-.166-.9-.241-1.369-.045-.406-.1-.812-.15-1.217a.723.723,0,0,0-.015-.181,4.541,4.541,0,0,1-.045-.632c.015.166.03.331.045.5.046.422.106.858.166,1.264a3.931,3.931,0,0,0,.1.6,6.692,6.692,0,0,0,.136.752c.06.376.151.753.24,1.113.106.392.226.782.331,1.174.1.331.21.646.315.962a17.58,17.58,0,0,0,.782,1.985c.09.21.18.406.286.6.135.315.286.616.436.917.03.03.03.06.045.075.2.346.376.676.572,1.023,0,.014.014.03.03.045.136.225.271.466.421.707.136.2.256.391.391.586a.745.745,0,0,0,.106.135c.21.315.435.632.661.948.225.3.466.6.692.887a.637.637,0,0,0,.166.181,9.66,9.66,0,0,0,.736.856c.271.3.556.6.842.887.256.256.527.512.782.768a2.561,2.561,0,0,1,.226.2c.271.241.556.481.842.722.315.255.647.511.977.767.255.2.526.391.8.572a4.182,4.182,0,0,0,.422.285,6.131,6.131,0,0,0,.526.332,3.639,3.639,0,0,0,.512.316c.346.211.676.406,1.037.6.211.1.436.225.647.331q.766.384,1.579.722c.166.075.346.135.527.211.255.106.526.2.8.3.346.12.692.24,1.053.346.346.1.707.211,1.068.3a.089.089,0,0,0,.06.015c.391.1.782.2,1.188.286h.06c.3.06.6.12.9.165a25.24,25.24,0,0,0,4.3.362H656.076c.512,0,1.037-.016,1.534-.045.271-.016.541-.031.812-.061.226-.03.452-.045.692-.075a2.361,2.361,0,0,1,.316-.03c.315-.045.616-.09.917-.151a.385.385,0,0,0,.12-.014c.181-.03.361-.06.556-.09a1.47,1.47,0,0,1,.256-.06c.045,0,.06-.014.1-.014.271-.061.527-.121.813-.181.1-.03.226-.06.331-.09q.586-.157,1.128-.315c.375-.121.752-.241,1.1-.362a.057.057,0,0,1,.045-.014c.181-.075.361-.136.542-.211.014-.015.045-.015.06-.03.2-.06.406-.151.6-.225.015-.015.015-.015.046-.015.526-.226,1.053-.466,1.563-.722.226-.106.436-.226.647-.331.361-.2.692-.391,1.038-.6a3.64,3.64,0,0,0,.512-.316,6.115,6.115,0,0,0,.526-.332,4.178,4.178,0,0,0,.422-.285c.271-.181.541-.376.8-.572.346-.256.662-.511.977-.767.256-.211.5-.421.737-.632.03-.031.074-.061.1-.09a2.566,2.566,0,0,1,.226-.2.19.19,0,0,1,.075-.076c.241-.225.481-.451.707-.692l.331-.33c.106-.107.226-.226.332-.347a.21.21,0,0,1,.045-.06,1.989,1.989,0,0,0,.286-.315c.2-.211.375-.436.556-.647a2.465,2.465,0,0,0,.2-.226c.24-.286.467-.587.692-.887a6.876,6.876,0,0,0,.481-.677l.061-.06c.119-.18.24-.36.36-.541.2-.286.392-.6.572-.917a.192.192,0,0,0,.045-.06l.361-.632a3.848,3.848,0,0,0,.2-.361c.135-.241.256-.466.362-.692.15-.3.3-.616.435-.933.106-.225.21-.466.316-.692a1.806,1.806,0,0,1,.1-.255c.091-.241.181-.5.271-.752a4.2,4.2,0,0,0,.165-.467l.045-.09.271-.857c.09-.3.181-.6.256-.918a.344.344,0,0,0,.03-.119l.091-.316c.075-.285.135-.587.2-.888,0-.014.015-.03.015-.045.046-.255.09-.5.121-.752a3.942,3.942,0,0,0,.1-.6C681.747,868.235,681.792,867.8,681.837,867.376Z" transform="translate(-236.472 -219.745)" fill="url(#linear-gradient)"/>
          <path id="Path_308624" data-name="Path 308624" d="M763.278,864.4q0,.67-.034,1.331C763.264,865.289,763.278,864.846,763.278,864.4Z" transform="translate(-317.782 -219.362)" fill="#dfdfdf"/>
          <path id="Path_308625" data-name="Path 308625" d="M681.671,126.258c.03.285.075.586.1.887-.03-.211-.075-.421-.1-.632a4.313,4.313,0,0,0-.1-.6c-.03-.255-.075-.5-.121-.752-.09-.421-.2-.828-.3-1.248-.09-.346-.18-.707-.286-1.037q-.136-.429-.271-.858c-.2-.525-.375-1.052-.586-1.563-.106-.226-.211-.452-.316-.692-.135-.316-.286-.632-.435-.932-.121-.226-.227-.452-.362-.677a1.954,1.954,0,0,0-.2-.36,6.542,6.542,0,0,0-.406-.708c-.18-.315-.376-.616-.572-.917-.12-.18-.241-.361-.36-.526-.181-.255-.361-.512-.542-.752-.225-.3-.451-.587-.692-.887a1.287,1.287,0,0,0-.2-.211c-.181-.225-.361-.451-.556-.661-.09-.1-.181-.211-.286-.316-.226-.256-.452-.5-.707-.736-.256-.256-.527-.512-.782-.753-.075-.074-.151-.135-.226-.211-.271-.24-.556-.481-.842-.707a7.879,7.879,0,0,0-.977-.766,7.1,7.1,0,0,0-.8-.572,4.312,4.312,0,0,0-.422-.3c-.165-.106-.346-.226-.526-.331a3.636,3.636,0,0,0-.512-.315c-.346-.211-.677-.406-1.038-.587-.211-.12-.421-.241-.647-.346-.511-.255-1.037-.481-1.563-.721-.211-.09-.436-.166-.647-.241s-.421-.166-.647-.24c-.346-.136-.722-.256-1.1-.376q-.542-.157-1.128-.315c-.406-.106-.827-.2-1.248-.286a9.218,9.218,0,0,0-.933-.167,25.069,25.069,0,0,0-4.271-.36H262.624a23.862,23.862,0,0,0-4.3.376c-.3.03-.6.09-.9.151-.014,0-.03.014-.06.014-.406.075-.8.166-1.188.271a.093.093,0,0,0-.06.014c-.361.09-.722.2-1.068.3-.361.12-.707.226-1.053.346-.271.1-.541.2-.8.3-.181.075-.361.15-.527.211q-.812.337-1.579.721c-.211.1-.436.226-.647.346-.361.181-.692.376-1.037.587a3.636,3.636,0,0,0-.512.315c-.18.106-.361.226-.526.331a4.316,4.316,0,0,0-.422.3,7.091,7.091,0,0,0-.8.572,9.191,9.191,0,0,0-.977.766c-.286.226-.572.467-.842.707-.075.075-.15.136-.226.211-.255.241-.526.5-.782.753-.286.285-.572.586-.842.9a9.4,9.4,0,0,0-.736.842.913.913,0,0,0-.166.181c-.226.3-.467.585-.692.887s-.452.631-.661.947a.81.81,0,0,0-.106.135c-.135.2-.255.391-.391.6s-.285.466-.421.706a.033.033,0,0,0-.03.03c-.2.346-.376.676-.572,1.023a.206.206,0,0,1-.045.074c-.151.3-.3.617-.436.917-.106.2-.2.391-.286.6a18.771,18.771,0,0,0-.782,1.984c-.106.316-.211.632-.315.963-.106.391-.226.782-.331,1.188-.09.36-.18.722-.24,1.1a6.691,6.691,0,0,0-.136.752,4.3,4.3,0,0,0-.1.6c-.06.421-.12.842-.166,1.263-.014.166-.03.331-.045.5a4.182,4.182,0,0,1,.045-.617.845.845,0,0,0,.015-.2c.046-.406.106-.812.15-1.2.075-.482.151-.918.241-1.384.135-.676.286-1.354.466-2,.18-.662.391-1.309.616-1.955.15-.436.3-.857.481-1.264s.346-.826.542-1.233c.151-.346.315-.692.481-1.022.045-.061.06-.121.1-.2.211-.391.421-.782.647-1.158.211-.361.421-.707.632-1.053a.617.617,0,0,0,.06-.1c.241-.331.466-.692.707-1.023.015-.03.045-.045.045-.075.211-.286.422-.556.632-.827a.949.949,0,0,1,.15-.2c.075-.106.166-.211.256-.316.2-.255.406-.511.616-.752s.451-.512.707-.767a2.71,2.71,0,0,1,.211-.225,2.034,2.034,0,0,1,.24-.257c.166-.165.316-.33.482-.48a29.219,29.219,0,0,1,2.315-2.03q.474-.384.948-.722c.18-.121.346-.241.527-.361a25.47,25.47,0,0,1,2.3-1.429l.586-.315a27.259,27.259,0,0,1,5.745-2.271c.18-.06.391-.1.571-.15.226-.06.451-.121.677-.166a25.884,25.884,0,0,1,3.458-.542c.211-.03.436-.045.662-.074.707-.046,1.414-.076,2.135-.076H653.429c.722,0,1.428.03,2.135.076.2.03.391.045.6.06a30.153,30.153,0,0,1,3.534.556c.211.045.436.106.662.166.165.03.331.074.5.12a28.261,28.261,0,0,1,5.82,2.3l.586.315a13.6,13.6,0,0,1,1.188.693c.166.12.362.225.527.346.2.12.376.24.556.361.512.36,1.022.721,1.5,1.113.21.165.42.331.616.512.331.255.646.541.962.812.181.166.361.331.527.512.315.3.631.6.932.933,0,0,.03.014.03.029.6.632,1.188,1.309,1.729,1.986.015.014.015.03.03.045a29.32,29.32,0,0,1,2.225,3.278c.226.376.436.767.647,1.158a.831.831,0,0,0,.1.2c.166.331.331.676.5,1.022.181.407.361.813.527,1.233s.346.828.5,1.264q.2.632.405,1.263a.587.587,0,0,1,.016.074c.12.422.24.842.36,1.278s.2.887.286,1.338S681.6,125.776,681.671,126.258Z" transform="translate(-236.472 -101.579)" fill="url(#linear-gradient-2)"/>
          <path id="Path_308626" data-name="Path 308626" d="M763.118,132.279a.343.343,0,0,1,0,.121c-.015-.211-.046-.421-.061-.632l.046.315A.844.844,0,0,0,763.118,132.279Z" transform="translate(-317.753 -106.202)" fill="url(#linear-gradient-3)"/>
          <path id="Path_308627" data-name="Path 308627" d="M763.278,135.343c0-.446-.013-.889-.034-1.331Q763.278,134.673,763.278,135.343Z" transform="translate(-317.782 -106.549)" fill="#dfdfdf"/>
          <path id="Path_308628" data-name="Path 308628" d="M265.254,772.99h-2.647a25.247,25.247,0,0,1-4.3-.362c-.3-.045-.6-.1-.9-.165h-.06c-.406-.09-.8-.181-1.188-.286a.089.089,0,0,1-.06-.015c-.361-.09-.722-.2-1.068-.3-.361-.106-.707-.226-1.053-.346-.271-.106-.541-.2-.8-.3-.181-.075-.361-.135-.527-.211q-.812-.339-1.579-.722c-.211-.106-.436-.226-.647-.331-.361-.2-.692-.391-1.037-.6a3.639,3.639,0,0,1-.512-.316,6.148,6.148,0,0,1-.526-.332,4.185,4.185,0,0,1-.422-.285c-.271-.181-.541-.376-.8-.572-.331-.256-.662-.511-.977-.767-.286-.241-.572-.481-.842-.722a2.557,2.557,0,0,0-.226-.2c-.255-.255-.526-.512-.782-.768-.286-.285-.572-.586-.842-.887-.255-.286-.5-.556-.736-.856a.636.636,0,0,1-.166-.181c-.226-.286-.467-.587-.692-.887-.226-.315-.452-.633-.661-.948a.745.745,0,0,1-.106-.135c-.135-.2-.255-.391-.391-.586-.15-.241-.285-.482-.421-.707-.015-.015-.03-.03-.03-.045-.2-.347-.376-.677-.572-1.023-.015-.015-.015-.046-.045-.075-.151-.3-.3-.6-.436-.917-.106-.2-.2-.391-.286-.6a17.574,17.574,0,0,1-.782-1.985c-.106-.316-.211-.632-.315-.962-.106-.391-.226-.782-.331-1.174-.09-.36-.18-.736-.24-1.113a6.685,6.685,0,0,1-.136-.752,3.926,3.926,0,0,1-.1-.6c-.06-.406-.12-.842-.166-1.264-.014-.165-.03-.33-.045-.5a6.49,6.49,0,0,1-.045-.767c-.03-.436-.045-.887-.045-1.323V130.861c0-.451.014-.887.045-1.338a6.472,6.472,0,0,1,.045-.767c.015-.166.03-.331.045-.5.046-.421.106-.842.166-1.263a4.293,4.293,0,0,1,.1-.6,6.684,6.684,0,0,1,.136-.752c.06-.375.15-.737.24-1.1.106-.406.226-.8.331-1.188.1-.331.21-.647.315-.963a18.764,18.764,0,0,1,.782-1.984c.09-.211.18-.406.286-.6.135-.3.286-.616.436-.917a.207.207,0,0,0,.045-.074c.2-.347.376-.677.572-1.023a.033.033,0,0,1,.03-.03c.136-.24.271-.481.421-.706s.256-.407.391-.6a.811.811,0,0,1,.106-.135c.21-.316.435-.632.661-.947s.466-.587.692-.887a.912.912,0,0,1,.166-.181c.24-.286.481-.572.736-.842.271-.316.556-.617.842-.9.256-.256.527-.512.782-.753.075-.074.151-.135.226-.211.271-.24.556-.481.842-.707.315-.271.647-.526.977-.766a7.091,7.091,0,0,1,.8-.572,4.319,4.319,0,0,1,.422-.3c.165-.106.346-.226.526-.331a3.634,3.634,0,0,1,.512-.315c.346-.211.676-.406,1.037-.587.211-.12.436-.241.647-.346q.766-.383,1.579-.721c.166-.061.346-.135.527-.211.255-.106.526-.2.8-.3.346-.12.692-.226,1.053-.346.346-.1.707-.211,1.068-.3a.093.093,0,0,1,.06-.014c.391-.106.782-.2,1.188-.271.03,0,.046-.014.06-.014.3-.06.6-.121.9-.151a23.861,23.861,0,0,1,4.3-.376h2.647a25.915,25.915,0,0,0-25.9,25.9V747.108A25.913,25.913,0,0,0,265.254,772.99Z" transform="translate(-236.456 -102.062)" fill="url(#linear-gradient-4)"/>
          <path id="Path_308629" data-name="Path 308629" d="M758.075,130.861V747.108c0,.24,0,.481-.015.721v.061c0,.2-.015.36-.03.541s-.014.375-.03.556c0,.06-.014.12-.014.18s-.015.12-.015.18v.091c-.015.09-.015.181-.03.255-.046.422-.091.858-.166,1.264a3.935,3.935,0,0,1-.1.6c-.03.255-.075.5-.121.752,0,.015-.015.03-.015.045-.06.3-.12.6-.2.888l-.09.316a.344.344,0,0,1-.03.119c-.075.317-.166.617-.256.918l-.271.857-.045.09a4.211,4.211,0,0,1-.165.467c-.09.255-.181.511-.271.752a1.806,1.806,0,0,0-.1.255c-.106.226-.211.467-.316.692-.135.316-.286.632-.435.933-.106.226-.227.451-.362.692a3.855,3.855,0,0,1-.2.361l-.361.632a.19.19,0,0,1-.045.06c-.18.316-.376.632-.572.917l-.36.541-.061.06a7.685,7.685,0,0,1-.481.677c-.225.3-.452.6-.692.887a2.448,2.448,0,0,1-.2.226c-.181.211-.361.436-.556.647a1.989,1.989,0,0,1-.286.315.21.21,0,0,0-.045.06c-.106.106-.226.226-.331.347l-.331.33c-.226.241-.466.467-.707.692a.191.191,0,0,0-.075.076,2.566,2.566,0,0,0-.226.2c-.03.029-.074.06-.1.09-.241.21-.481.421-.737.632-.315.255-.632.511-.977.767-.255.2-.526.391-.8.572a4.178,4.178,0,0,1-.422.285,6.13,6.13,0,0,1-.526.332,3.64,3.64,0,0,1-.512.316c-.346.211-.676.406-1.037.6-.211.1-.421.225-.647.331-.511.256-1.037.5-1.563.722-.03,0-.03,0-.046.015-.2.074-.406.165-.6.225-.015.015-.046.015-.06.03-.181.074-.361.135-.542.211a.057.057,0,0,0-.045.014c-.346.121-.722.241-1.1.362q-.542.157-1.128.315c-.1.03-.226.06-.331.09-.286.06-.542.12-.813.181-.045,0-.06.014-.1.014a1.468,1.468,0,0,0-.256.06c-.2.03-.375.06-.556.09a.386.386,0,0,1-.12.014c-.3.061-.6.106-.917.151a2.362,2.362,0,0,0-.316.03c-.24.03-.466.045-.692.075-.271.03-.541.045-.812.061-.5.029-1.022.045-1.534.045h-2.647a25.913,25.913,0,0,0,25.9-25.881V130.861a25.915,25.915,0,0,0-25.9-25.9h2.647a25.069,25.069,0,0,1,4.271.36,9.216,9.216,0,0,1,.933.167c.421.09.842.18,1.248.286q.586.157,1.128.315c.375.12.752.24,1.1.376.226.074.436.15.647.24s.435.151.647.241c.526.24,1.053.466,1.563.721.226.1.436.226.647.346.361.181.692.376,1.037.587a3.636,3.636,0,0,1,.512.315c.18.106.361.226.526.331a4.312,4.312,0,0,1,.422.3,7.094,7.094,0,0,1,.8.572,12.021,12.021,0,0,1,.977.766c.286.226.572.467.842.707.075.075.151.136.226.211.255.241.526.5.782.753.241.24.466.48.707.736.1.106.2.211.286.316.2.211.375.436.556.661a1.283,1.283,0,0,1,.2.211c.24.3.467.585.692.887.181.24.361.5.542.752.119.165.24.346.36.526.2.3.392.6.572.917a6.543,6.543,0,0,1,.406.708,1.954,1.954,0,0,1,.2.36c.135.226.241.452.362.677.15.3.3.616.435.932.106.24.211.466.316.692.211.512.391,1.038.586,1.563q.136.43.271.858c.106.331.2.692.286,1.037.106.42.211.827.3,1.248.046.255.091.5.121.752a4.3,4.3,0,0,1,.1.6c.075.421.12.842.166,1.263a2.588,2.588,0,0,1,.03.345c.03.3.046.617.06.918.015.2.03.36.03.541v.06C758.075,130.365,758.075,130.605,758.075,130.861Z" transform="translate(-312.575 -102.062)" fill="url(#linear-gradient-4)"/>
        </g>
        <g id="Group_127462" data-name="Group 127462" transform="translate(21.945 66.812)">
          <rect id="Rectangle_47763" data-name="Rectangle 47763" width="397.955" height="529.693" transform="translate(1.955 1.954)" fill="url(#linear-gradient-6)"/>
          <path id="Path_308630" data-name="Path 308630" d="M662.944,180.549h-399.3a1.284,1.284,0,0,0-1.284,1.284V712.867a1.283,1.283,0,0,0,1.284,1.284h399.3a1.284,1.284,0,0,0,1.284-1.284V181.833A1.284,1.284,0,0,0,662.944,180.549Zm-.67,531.648H264.318V182.5H662.273Z" transform="translate(-262.363 -180.549)" fill="url(#linear-gradient-7)"/>
        </g>
      </g>
      <g id="Group_127464" data-name="Group 127464" transform="translate(201.721 621.181)">
        <circle id="Ellipse_495" data-name="Ellipse 495" cx="17.306" cy="17.306" r="17.306" transform="translate(3.851 3.851)" fill="url(#linear-gradient-8)"/>
        <circle id="Ellipse_496" data-name="Ellipse 496" cx="17.145" cy="17.145" r="17.145" transform="translate(0 33.124) rotate(-75.011)" fill="url(#linear-gradient-9)"/>
        <circle id="Ellipse_497" data-name="Ellipse 497" cx="14.983" cy="14.983" r="14.983" transform="translate(3.638 33.148) rotate(-79.993)" fill="#b6b6b6"/>
        <circle id="Ellipse_498" data-name="Ellipse 498" cx="14.522" cy="14.522" r="14.522" transform="translate(4.172 32.774) rotate(-79.993)" fill="#fff"/>
      </g>
    </g>
  </g>
</svg>
